<svg width="583" height="485" viewBox="0 0 583 485" fill="none" xmlns="http://www.w3.org/2000/svg">
<g clip-path="url(#clip0_274_1445)">
<path opacity="0.4" d="M492.048 186.464C499.763 186.464 506.017 179.541 506.017 171.002C506.017 162.462 499.763 155.54 492.048 155.54C484.332 155.54 478.078 162.462 478.078 171.002C478.078 179.541 484.332 186.464 492.048 186.464Z" fill="#448E78"/>
<path opacity="0.4" d="M197.514 101.397C208.513 101.397 217.428 91.529 217.428 79.3558C217.428 67.1826 208.513 57.3142 197.514 57.3142C186.516 57.3142 177.601 67.1826 177.601 79.3558C177.601 91.529 186.516 101.397 197.514 101.397Z" fill="#448E78"/>
<path opacity="0.4" d="M160.659 105.345C168.374 105.345 174.628 98.4226 174.628 89.8831C174.628 81.3437 168.374 74.4211 160.659 74.4211C152.944 74.4211 146.689 81.3437 146.689 89.8831C146.689 98.4226 152.944 105.345 160.659 105.345Z" fill="#448E78"/>
<path d="M503.747 343.907C492.709 357.282 492.309 376.766 492.309 376.766C492.309 376.766 509.804 374.564 520.842 361.189C531.879 347.813 532.28 328.329 532.28 328.329C532.28 328.329 514.785 330.531 503.747 343.907Z" fill="#3F3D56"/>
<path d="M509.982 347.755C506.642 365.49 492.602 377.251 492.602 377.251C492.602 377.251 483.978 360.26 487.318 342.526C490.658 324.792 504.698 313.03 504.698 313.03C504.698 313.03 513.322 330.021 509.982 347.755Z" fill="#448E78"/>
<path d="M495.646 164.763V376.17L431.98 434.384H106.265V212.764L201.303 164.763H495.646Z" fill="#3F3D56"/>
<path opacity="0.1" d="M495.646 164.763V165.61L472.791 182.543L431.98 212.764H106.265L201.303 164.763H495.646Z" fill="black"/>
<path opacity="0.1" d="M495.646 164.763V376.17L431.979 434.384L432.441 212.253L472.791 182.543L495.277 164.763H495.646Z" fill="black"/>
<path d="M409.835 193.87H211.453L226.216 184.678H416.294L409.835 193.87Z" fill="#2F2E41"/>
<path d="M581.052 445.883C581.052 445.883 584.898 463.684 581.402 464.458C577.906 465.232 560.774 464.982 556.579 465.756C552.383 466.53 543.643 465.232 543.643 461.749C543.643 458.266 552.733 455.945 552.733 455.945C552.733 455.945 565.669 448.205 566.019 447.818C566.368 447.431 581.052 445.883 581.052 445.883Z" fill="#2F2E41"/>
<path d="M577.906 341.011C577.906 341.011 576.857 354.168 576.857 355.329C576.857 356.49 577.906 374.678 576.857 375.452C575.808 376.226 577.557 381.644 577.557 383.579C577.557 385.514 583.151 417.633 581.752 430.017C580.354 442.4 583.85 441.239 582.801 442.4C581.752 443.561 581.752 443.561 581.752 445.883C581.752 448.205 570.564 450.14 570.564 450.14L558.327 364.617L564.62 339.076L577.906 341.011Z" fill="#575A89"/>
<path opacity="0.1" d="M577.906 341.011C577.906 341.011 576.857 354.168 576.857 355.329C576.857 356.49 577.906 374.678 576.857 375.452C575.808 376.226 577.557 381.644 577.557 383.579C577.557 385.514 583.151 417.633 581.752 430.017C580.354 442.4 583.85 441.239 582.801 442.4C581.752 443.561 581.752 443.561 581.752 445.883C581.752 448.205 570.564 450.14 570.564 450.14L558.327 364.617L564.62 339.076L577.906 341.011Z" fill="black"/>
<path d="M576.158 451.301C576.158 451.301 579.654 465.232 576.158 466.006C572.662 466.78 555.53 465.119 551.335 465.893C547.139 466.667 538.398 466.78 538.398 463.297C538.398 459.814 547.489 457.493 547.489 457.493C547.489 457.493 560.425 449.753 560.774 449.366C561.124 448.979 576.158 451.301 576.158 451.301Z" fill="#2F2E41"/>
<path d="M581.052 325.532C581.052 325.532 585.248 336.754 580.353 342.559C575.458 348.364 569.864 359.973 569.864 360.747C569.864 361.521 579.654 438.53 578.255 443.561C576.857 448.592 577.206 451.688 577.556 452.462C577.905 453.236 574.06 457.493 569.864 457.493C565.669 457.493 559.375 454.01 558.676 450.914C557.977 447.818 559.725 421.116 559.375 416.086C559.026 411.055 557.278 403.702 556.578 402.154C555.879 400.606 552.033 399.058 551.334 394.415C550.635 389.771 545.041 330.563 546.789 328.628C548.537 326.693 581.052 325.532 581.052 325.532Z" fill="#575A89"/>
<path d="M554.481 236.526C561.046 236.526 566.368 230.635 566.368 223.369C566.368 216.102 561.046 210.211 554.481 210.211C547.916 210.211 542.594 216.102 542.594 223.369C542.594 230.635 547.916 236.526 554.481 236.526Z" fill="#FFB9B9"/>
<path d="M561.823 229.948C561.823 229.948 559.375 244.266 561.123 245.814C562.872 247.362 547.838 249.684 547.838 249.684C547.838 249.684 546.089 230.721 545.74 228.787C545.39 226.852 561.823 229.948 561.823 229.948Z" fill="#FFB9B9"/>
<path d="M545.74 248.522C545.74 248.522 549.936 234.978 567.067 238.848C567.067 238.848 570.214 240.009 569.165 241.17C568.116 242.331 567.067 242.331 568.466 243.492C569.864 244.653 571.612 243.492 570.563 244.653C569.515 245.814 580.003 252.779 579.304 265.937C578.605 279.094 581.751 297.669 579.304 300.765C576.857 303.861 581.052 317.405 580.353 320.114C579.654 322.823 584.548 326.306 582.451 327.467C580.353 328.628 542.593 335.593 541.545 327.467C540.496 319.34 541.195 325.145 540.146 323.21C539.097 321.275 538.748 317.792 539.447 313.535C540.146 309.279 541.894 298.83 541.195 294.96C540.496 291.09 541.195 258.584 543.293 254.714C545.39 250.844 545.74 248.522 545.74 248.522Z" fill="#448E78"/>
<path d="M553.083 342.946C553.083 342.946 558.327 365.004 551.684 365.004C545.041 365.004 545.391 342.172 545.391 342.172L553.083 342.946Z" fill="#FFB9B9"/>
<path d="M549.236 223.369C549.236 224.491 550.705 225.203 552.981 225.366H552.984C553.949 225.426 554.917 225.406 555.879 225.304C557.334 225.157 557.935 226.67 558.183 228.667C558.589 231.96 558.022 236.576 558.676 237.3C559.578 238.299 566.155 237.296 568.21 235.032C568.53 234.715 568.744 234.286 568.815 233.817C569.031 232.435 569.647 231.168 570.571 230.207C571.784 228.74 573.511 227.115 575.458 224.53C578.954 219.886 575.458 219.499 574.409 216.016C573.361 212.533 571.612 211.372 571.612 209.05C571.612 206.729 563.571 204.794 556.928 205.181C550.285 205.568 551.684 214.855 551.684 214.855C551.684 214.855 551.289 215.977 550.817 217.425C550.178 219.241 549.659 221.106 549.264 223.005C549.248 223.125 549.239 223.247 549.236 223.369Z" fill="#2F2E41"/>
<path opacity="0.1" d="M550.635 254.327C550.635 254.327 562.522 253.553 563.571 272.902C564.62 292.251 564.27 310.44 564.27 310.827C564.27 311.214 559.375 347.977 554.83 347.977C550.285 347.977 546.789 347.203 545.74 345.268C544.691 343.333 548.537 315.47 548.537 315.47C548.537 315.47 550.285 286.06 547.488 276.772C544.691 267.485 544.341 255.488 550.635 254.327Z" fill="black"/>
<path d="M548.887 252.392C548.887 252.392 560.774 251.618 561.823 270.968C562.872 290.317 562.522 308.505 562.522 308.892C562.522 309.279 557.627 346.042 553.082 346.042C548.537 346.042 545.041 345.268 543.992 343.333C542.943 341.398 546.789 313.535 546.789 313.535C546.789 313.535 548.537 284.125 545.74 274.837C542.943 265.55 542.593 253.553 548.887 252.392Z" fill="#448E78"/>
<path d="M351.77 63.231C351.77 63.231 346.59 46.9846 342.848 52.0815C339.107 57.1784 348.605 65.7795 348.605 65.7795L351.77 63.231Z" fill="#A0616A"/>
<path d="M376.234 47.3031L373.118 48.5815C373.118 48.5815 371.629 55.9042 372.205 57.1784C372.78 58.4526 373.068 57.497 372.205 60.0454C371.341 62.5939 368.751 69.2836 368.463 70.2393C368.175 71.195 351.77 64.1867 351.77 60.6826C351.77 60.6826 348.317 65.1424 346.59 66.098C346.59 66.098 365.585 81.3888 368.175 83.3002C370.766 85.2116 372.205 84.2559 374.507 82.026C376.81 79.7961 386.595 61.3197 386.595 61.3197L376.234 47.3031Z" fill="#448E78"/>
<path d="M367.887 160.391C367.887 160.391 368.175 163.895 368.751 164.214C369.326 164.533 373.644 172.496 368.751 174.089C363.858 175.682 360.98 175.045 359.829 175.682C358.678 176.319 338.531 177.593 338.243 174.089C337.956 170.585 348.029 169.948 348.029 169.948C348.029 169.948 357.239 163.258 358.678 159.754C360.117 156.25 367.887 160.391 367.887 160.391Z" fill="#2F2E41"/>
<path d="M426.312 166.762C426.312 166.762 433.219 179.823 431.492 181.416C429.766 183.009 412.948 188.813 410.482 189.062C407.317 189.38 405.014 186.513 407.604 184.92C410.195 183.327 415.663 176.638 415.663 174.408V168.674L426.312 166.762Z" fill="#2F2E41"/>
<path d="M432.931 81.3888C432.931 81.3888 438.975 89.6713 429.478 103.051L413.648 125.35C413.648 125.35 423.434 142.552 423.721 151.472C424.009 160.391 426.024 158.48 426.6 162.303C427.175 166.125 429.765 164.214 427.751 167.081C425.736 169.948 418.253 172.496 415.951 170.267C415.159 169.465 414.54 168.475 414.142 167.372C413.743 166.269 413.574 165.081 413.648 163.895C413.648 162.621 409.619 155.294 409.331 153.064C409.043 150.835 398.394 132.677 398.394 132.677C398.394 132.677 394.941 121.846 398.97 115.793C402.999 109.74 405.662 101.156 405.662 101.156C405.662 101.156 393.79 117.067 385.443 120.89C385.443 120.89 382.277 121.527 382.853 123.12C383.428 124.713 382.853 125.668 381.989 127.261C381.126 128.854 375.082 147.33 373.067 152.109C371.053 156.887 371.916 159.754 369.614 161.347C367.311 162.94 356.95 161.666 356.95 160.073C356.95 158.48 358.389 154.339 359.253 152.109C360.116 149.879 367.023 124.076 366.448 119.616C365.872 115.156 366.736 109.103 371.053 106.555C375.37 104.006 397.243 83.3002 398.394 83.3002C399.546 83.3002 432.931 81.3888 432.931 81.3888Z" fill="#2F2E41"/>
<path d="M375.082 31.3752C381.758 31.3752 387.17 25.385 387.17 17.9958C387.17 10.6065 381.758 4.61633 375.082 4.61633C368.406 4.61633 362.994 10.6065 362.994 17.9958C362.994 25.385 368.406 31.3752 375.082 31.3752Z" fill="#A0616A"/>
<path d="M384.868 19.27C384.868 19.27 388.609 26.5969 393.214 27.5526C397.819 28.5083 381.126 43.1619 381.126 43.1619C381.126 43.1619 377.097 29.1454 373.643 28.5082C370.19 27.8711 384.868 19.27 384.868 19.27Z" fill="#A0616A"/>
<path d="M373.067 49.2144C373.067 53.3557 384.292 65.1424 384.292 65.1424L394.941 75.0176C394.941 75.0176 395.229 78.5218 396.38 78.8403C397.531 79.1589 398.97 79.1589 397.819 81.0703C396.668 82.9816 393.789 87.1229 396.38 87.76C397.161 87.8914 397.948 87.9744 398.737 88.0084C399.428 88.0531 400.239 88.0945 401.152 88.1327C403.281 88.2155 405.946 88.2697 408.833 88.2474C409.653 88.2442 410.488 88.2336 411.337 88.2155C422.219 87.9766 434.825 86.5909 433.795 82.0259C432.068 74.3805 433.219 71.8321 429.478 67.6908C425.736 63.5495 419.692 49.2144 419.692 49.2144C419.692 49.2144 407.604 26.5968 397.531 26.5968L395.439 25.9883C394.466 25.7048 393.438 25.767 392.5 26.1661C391.561 26.5651 390.76 27.2809 390.209 28.2119C388.189 31.6173 385.003 36.7333 383.141 38.3834C380.263 40.9319 379.814 39.1034 379.814 39.1034C379.814 39.1034 373.067 45.0732 373.067 49.2144Z" fill="#448E78"/>
<path d="M398.682 97.6353C398.682 97.6353 390.336 111.97 395.516 114.519C400.697 117.067 403.575 99.5466 403.575 99.5466L398.682 97.6353Z" fill="#A0616A"/>
<path d="M382.985 16.4845C382.521 16.4197 382.374 15.7718 382.296 15.2615C381.878 12.5288 380.038 9.93747 377.566 9.49633C376.621 9.3572 375.66 9.44291 374.748 9.74773C373.44 10.1448 372.213 10.8134 371.131 11.7178C370.602 12.2533 369.99 12.6788 369.324 12.9738C368.871 13.1213 366.945 14.069 366.495 14.2293C365.506 14.5819 364.687 15.7281 363.668 15.5011C362.693 15.284 362.323 13.9811 362.166 12.8942C361.809 10.4181 363.09 6.72358 364.363 4.64956C365.329 3.07567 366.964 2.16988 368.598 1.5806C370.513 0.937217 372.481 0.504476 374.473 0.288659C377.161 -0.0628098 379.946 -0.249283 382.523 0.670607C385.099 1.5905 387.446 3.84076 387.927 6.78976C388.027 7.40406 388.046 8.03327 388.168 8.64252C388.468 10.1288 389.356 11.3781 389.875 12.7887C390.249 13.8247 390.422 14.936 390.384 16.0508C390.346 17.1656 390.098 18.2592 389.655 19.2612C388.937 20.8586 387.689 22.3937 387.958 24.1527L385.737 22.2143C385.416 22.0124 385.168 21.6949 385.033 21.3146C384.898 20.9343 384.885 20.5142 384.996 20.1246L385.319 17.0465C385.431 16.4888 385.38 15.9064 385.175 15.3823C384.188 13.4737 383.758 16.5925 382.985 16.4845Z" fill="#2F2E41"/>
<path opacity="0.1" d="M403.863 75.6548L401.152 88.1327C403.886 88.241 407.504 88.2984 411.338 88.2155C412.305 85.0045 413.229 81.6564 413.937 78.5218C416.527 67.0537 412.21 49.533 409.907 41.2505C407.605 32.9679 401.849 30.738 401.849 30.738C399.489 31.6566 397.26 32.9439 395.229 34.5607C391.488 37.4278 403.863 75.6548 403.863 75.6548Z" fill="black"/>
<path opacity="0.1" d="M401.56 75.0177L398.737 88.0085C399.428 88.0531 400.239 88.0945 401.152 88.1327C403.281 88.2155 405.946 88.2697 408.833 88.2474C409.872 84.8356 410.877 81.2359 411.634 77.8847C414.224 66.4166 409.907 48.8959 407.604 40.6133C405.302 32.3308 400.265 41.4097 400.265 41.4097C400.265 41.4097 402.28 35.9942 398.538 38.8612C394.797 41.7283 401.56 75.0177 401.56 75.0177Z" fill="black"/>
<path d="M400.697 30.101C400.697 30.101 406.453 32.3309 408.756 40.6134C411.058 48.8959 415.375 66.4166 412.785 77.8847C410.195 89.3528 404.727 103.688 404.727 103.688C404.727 103.688 399.258 99.2281 397.244 100.184L402.712 75.0177C402.712 75.0177 390.336 36.7907 394.078 33.9236C396.108 32.3068 398.338 31.0195 400.697 30.101Z" fill="#448E78"/>
<path d="M404.987 189.887L325.36 6.22705L192.218 76.9461L241.184 189.887H404.987Z" fill="#F2F2F2"/>
<path d="M298.415 78.3178L227.698 115.879L229.805 120.737L300.521 83.1761L298.415 78.3178Z" fill="#3F3D56"/>
<path d="M317.138 121.503L246.421 159.064L248.527 163.922L319.244 126.361L317.138 121.503Z" fill="#3F3D56"/>
<path d="M330 52.9082L312.442 62.2338L320.868 81.6669L338.425 72.3414L330 52.9082Z" fill="#3F3D56"/>
<path d="M348.722 96.093L331.165 105.419L339.59 124.852L357.148 115.526L348.722 96.093Z" fill="#3F3D56"/>
<path d="M331.209 39.4475L323.979 62.2185L314.231 58.4264L312.897 62.6269L326.427 67.8898L335.004 40.9239L331.209 39.4475Z" fill="#57B894"/>
<path d="M349.932 82.6322L342.702 105.403L332.955 101.612L331.621 105.812L345.15 111.074L353.727 84.1086L349.932 82.6322Z" fill="#57B894"/>
<path d="M7.68437 401.268L43.6592 392.763L35.9747 352.944L-0.000150257 361.45L7.68437 401.268Z" fill="#F2F2F2"/>
<path d="M42.6591 342.305C42.6591 342.305 29.4455 352.752 33.8501 356.93C38.2546 361.109 47.0637 344.394 47.0637 344.394L42.6591 342.305Z" fill="#FFB9B9"/>
<path d="M103.693 358.323C103.693 358.323 101.176 393.146 100.547 398.021C99.9176 402.896 99.2883 446.773 98.0299 451.648C96.7715 456.523 95.513 468.362 95.513 468.362H87.9624C87.9624 468.362 88.5916 446.773 86.7039 438.415C84.8163 430.058 85.4455 407.075 85.4455 407.075C85.4455 407.075 81.6702 365.984 83.5579 360.413C85.4455 354.841 103.693 358.323 103.693 358.323Z" fill="#FFB9B9"/>
<path d="M93.6261 466.273C93.6261 466.273 96.7723 468.363 96.7723 469.755C96.7723 471.148 96.143 474.631 96.7723 476.023C97.4015 477.416 101.806 482.988 99.2891 484.381C96.7723 485.774 85.4463 484.381 85.4463 484.381C85.4463 484.381 86.0755 474.631 86.7047 473.934C87.3339 473.238 86.0755 466.273 86.0755 466.273H93.6261Z" fill="#2F2E41"/>
<path d="M55.5934 357.47C55.5934 357.47 54.794 392.392 54.9574 397.314C55.1208 402.235 51.5857 445.942 52.3748 450.937C53.164 455.931 53.2927 467.852 53.2927 467.852L60.8016 468.729C60.8016 468.729 62.2233 447.185 64.8931 439.093C67.5629 431.001 69.1167 408.072 69.1167 408.072C69.1167 408.072 76.768 367.647 75.4191 361.887C74.0702 356.127 55.5934 357.47 55.5934 357.47Z" fill="#FFB9B9"/>
<path d="M55.3674 465.993C55.3674 465.993 52.0405 467.705 51.9084 469.091C51.7763 470.476 52.0718 474.012 51.314 475.324C50.5561 476.636 45.6476 481.665 48.0184 483.343C50.3893 485.02 61.7848 484.951 61.7848 484.951C61.7848 484.951 62.0837 475.181 61.524 474.416C60.9643 473.65 62.8763 466.87 62.8763 466.87L55.3674 465.993Z" fill="#2F2E41"/>
<path d="M94.8845 306.09C94.8845 306.09 99.9182 306.786 101.806 318.626C103.694 330.465 110.615 360.413 104.952 362.502C99.289 364.591 82.3001 368.77 81.6709 367.377C81.0416 365.984 79.7832 362.502 79.7832 362.502C79.7832 362.502 81.6709 368.77 79.154 368.77C76.6371 368.77 52.0975 364.591 52.7267 362.502C53.356 360.413 54.6144 345.091 54.6144 345.091C54.6144 345.091 58.3897 319.322 62.165 315.143C63.2576 313.982 64.1059 312.569 64.6496 311.005C65.1934 309.44 65.4192 307.762 65.3111 306.09H94.8845Z" fill="#2F2E41"/>
<path d="M104.322 300.518C104.322 300.518 96.1422 298.429 94.8837 301.214C93.6253 304 98.0298 308.179 99.9175 308.179C101.805 308.179 104.951 306.09 104.951 306.09L104.322 300.518Z" fill="#FFB9B9"/>
<path d="M87.3338 241.32C93.5889 241.32 98.6598 235.707 98.6598 228.784C98.6598 221.86 93.5889 216.247 87.3338 216.247C81.0786 216.247 76.0078 221.86 76.0078 228.784C76.0078 235.707 81.0786 241.32 87.3338 241.32Z" fill="#FFB9B9"/>
<path d="M85.4459 237.837C85.4459 237.837 83.5583 247.588 84.8167 247.588C86.0751 247.588 75.3784 253.856 75.3784 253.856L67.1985 252.463L64.6816 248.284C64.6816 248.284 77.8953 238.534 77.8953 232.962C77.8953 227.391 85.4459 237.837 85.4459 237.837Z" fill="#FFB9B9"/>
<path d="M79.7827 247.588C79.7827 247.588 81.6703 246.195 82.2996 246.195H87.3333C87.9625 246.195 96.1424 248.284 96.1424 248.284L101.176 279.624C101.176 279.624 92.3671 295.643 98.6593 308.179C98.6593 308.179 96.7717 306.786 87.9626 307.482C79.1535 308.179 63.4229 310.268 62.7937 310.268C62.1645 310.268 62.1645 304.697 62.7937 303.304C63.4229 301.911 62.1645 302.607 62.1645 299.125C62.1645 295.643 60.2769 289.375 60.2769 289.375L51.4678 253.856C51.4678 253.856 62.7937 246.891 64.6814 247.588C66.5691 248.284 72.2321 250.374 73.4905 249.677C74.7489 248.981 79.7827 247.588 79.7827 247.588Z" fill="#448E78"/>
<path d="M94.2549 248.981L96.1425 248.284C96.1425 248.284 99.9178 247.588 104.322 251.766C108.727 255.945 125.087 268.481 125.087 268.481C125.087 268.481 131.379 274.053 129.491 280.321C127.604 286.589 124.457 301.911 115.019 301.214C115.019 301.214 109.356 309.572 106.21 308.179C103.064 306.786 100.547 301.214 102.435 300.518C104.322 299.821 109.356 292.857 109.356 292.857L103.064 279.624H101.176L94.2549 275.446L94.2549 248.981Z" fill="#448E78"/>
<path d="M56.5014 253.159L51.4676 253.856C51.4676 253.856 47.0631 255.945 47.6923 264.999C48.3215 274.053 43.917 315.143 45.8047 320.019C45.8047 320.019 39.5125 343.698 40.7709 344.394C42.0293 345.091 49.58 349.269 48.9508 346.484C48.3216 343.698 55.8722 324.197 55.8722 324.197C55.8722 324.197 64.6813 313.75 60.906 299.125V287.285L56.5014 253.159Z" fill="#448E78"/>
<path d="M96.7596 240.904L88.7606 242.832L87.7326 238.473L88.1279 242.985L75.2237 246.097L74.6562 243.69L74.8744 246.181L66.6094 248.174L64.8413 229.388C63.0236 221.68 69.6576 213.464 76.6221 211.452L79.7117 210.559C84.8269 209.082 94.1249 210.425 95.4599 216.087C93.1233 225.958 89.1399 236.78 96.7596 240.904Z" fill="#2F2E41"/>
</g>
<defs>
<clipPath id="clip0_274_1445">
<rect width="583" height="485" fill="white"/>
</clipPath>
</defs>
</svg>
