<svg width="56" height="164" viewBox="0 0 56 164" fill="none" xmlns="http://www.w3.org/2000/svg">
<circle cx="28" cy="28" r="26.5" fill="#F5FFFB" stroke="black" stroke-width="3"/>
<path d="M24.34 38C23.9853 38 23.7053 37.8973 23.5 37.692C23.2947 37.4867 23.192 37.216 23.192 36.88C23.192 36.5253 23.2947 36.2547 23.5 36.068C23.7053 35.8813 23.9853 35.788 24.34 35.788H27.868V20.416H29.212L25.124 23.048C24.8627 23.216 24.6107 23.2907 24.368 23.272C24.144 23.2347 23.948 23.1413 23.78 22.992C23.612 22.824 23.5 22.628 23.444 22.404C23.388 22.18 23.3973 21.956 23.472 21.732C23.5653 21.4893 23.752 21.2933 24.032 21.144L27.896 18.624C28.176 18.456 28.4373 18.3253 28.68 18.232C28.9413 18.12 29.1933 18.064 29.436 18.064C29.716 18.064 29.9587 18.148 30.164 18.316C30.3693 18.484 30.472 18.7547 30.472 19.128V35.788H33.72C34.0933 35.788 34.3733 35.8813 34.56 36.068C34.7653 36.2547 34.868 36.5253 34.868 36.88C34.868 37.2347 34.7653 37.5147 34.56 37.72C34.3733 37.9067 34.0933 38 33.72 38H24.34Z" fill="black"/>
<path d="M26.5 162C26.5 162.828 27.1716 163.5 28 163.5C28.8284 163.5 29.5 162.828 29.5 162L26.5 162ZM26.5 53L26.5 162L29.5 162L29.5 53L26.5 53Z" fill="black"/>
</svg>
