<svg width="57" height="164" viewBox="0 0 57 164" fill="none" xmlns="http://www.w3.org/2000/svg">
<circle cx="28.666" cy="28" r="26.5" fill="#F5FFFB" stroke="black" stroke-width="3"/>
<path d="M28.814 38.252C27.7313 38.252 26.6487 38.1027 25.566 37.804C24.4833 37.5053 23.5407 37.0573 22.738 36.46C22.4767 36.2733 22.2993 36.0587 22.206 35.816C22.1127 35.5733 22.0847 35.3493 22.122 35.144C22.178 34.92 22.29 34.7333 22.458 34.584C22.626 34.4347 22.8313 34.3507 23.074 34.332C23.3167 34.2947 23.578 34.36 23.858 34.528C24.6607 35.0507 25.454 35.4333 26.238 35.676C27.0407 35.9 27.8713 36.012 28.73 36.012C29.6447 36.012 30.4193 35.8813 31.054 35.62C31.6887 35.34 32.1647 34.9387 32.482 34.416C32.818 33.8747 32.986 33.2307 32.986 32.484C32.986 31.364 32.622 30.524 31.894 29.964C31.166 29.3853 30.102 29.096 28.702 29.096H26.742C26.35 29.096 26.0513 29.0027 25.846 28.816C25.6407 28.6107 25.538 28.34 25.538 28.004C25.538 27.6493 25.6407 27.3787 25.846 27.192C26.0513 27.0053 26.35 26.912 26.742 26.912H28.478C29.2993 26.912 29.9993 26.772 30.578 26.492C31.1567 26.1933 31.6047 25.7827 31.922 25.26C32.258 24.7373 32.426 24.1027 32.426 23.356C32.426 22.348 32.0993 21.5827 31.446 21.06C30.7927 20.5187 29.85 20.248 28.618 20.248C27.8153 20.248 27.0593 20.3693 26.35 20.612C25.6407 20.836 24.922 21.2187 24.194 21.76C23.9513 21.928 23.7087 22.012 23.466 22.012C23.2233 21.9933 23.018 21.9093 22.85 21.76C22.7007 21.6107 22.598 21.4333 22.542 21.228C22.486 21.004 22.4953 20.7707 22.57 20.528C22.6447 20.2853 22.8127 20.0707 23.074 19.884C23.8393 19.2867 24.7167 18.8293 25.706 18.512C26.714 18.176 27.75 18.008 28.814 18.008C30.102 18.008 31.2033 18.2133 32.118 18.624C33.0513 19.0347 33.7607 19.6227 34.246 20.388C34.7313 21.1347 34.974 22.04 34.974 23.104C34.974 23.9067 34.8247 24.644 34.526 25.316C34.2273 25.9693 33.798 26.5293 33.238 26.996C32.6967 27.444 32.034 27.7613 31.25 27.948V27.64C32.6127 27.8827 33.6673 28.452 34.414 29.348C35.1793 30.2253 35.562 31.3267 35.562 32.652C35.562 33.7907 35.282 34.7893 34.722 35.648C34.1807 36.488 33.406 37.132 32.398 37.58C31.39 38.028 30.1953 38.252 28.814 38.252Z" fill="black"/>
<path d="M27.166 162C27.166 162.828 27.8376 163.5 28.666 163.5C29.4944 163.5 30.166 162.828 30.166 162L27.166 162ZM27.166 53L27.166 162L30.166 162L30.166 53L27.166 53Z" fill="black"/>
</svg>
