<svg width="57" height="164" viewBox="0 0 57 164" fill="none" xmlns="http://www.w3.org/2000/svg">
<circle cx="28.334" cy="28" r="26.5" fill="#F5FFFB" stroke="black" stroke-width="3"/>
<path d="M23.974 38C23.526 38 23.19 37.8973 22.966 37.692C22.7607 37.468 22.658 37.1693 22.658 36.796C22.658 36.572 22.714 36.348 22.826 36.124C22.938 35.9 23.106 35.676 23.33 35.452L29.462 28.872C30.3953 27.8827 31.0673 26.968 31.478 26.128C31.8887 25.288 32.094 24.4387 32.094 23.58C32.094 22.4973 31.758 21.676 31.086 21.116C30.4327 20.5373 29.4713 20.248 28.202 20.248C27.418 20.248 26.662 20.3787 25.934 20.64C25.2247 20.8827 24.5247 21.2653 23.834 21.788C23.5727 21.9747 23.33 22.0587 23.106 22.04C22.882 22.0213 22.686 21.9373 22.518 21.788C22.3687 21.62 22.2567 21.4333 22.182 21.228C22.126 21.004 22.1353 20.7707 22.21 20.528C22.2847 20.2853 22.4433 20.08 22.686 19.912C23.4513 19.3147 24.338 18.848 25.346 18.512C26.354 18.176 27.39 18.008 28.454 18.008C29.798 18.008 30.9273 18.2227 31.842 18.652C32.7753 19.0627 33.4847 19.6693 33.97 20.472C34.4553 21.256 34.698 22.2173 34.698 23.356C34.698 24.14 34.5673 24.9147 34.306 25.68C34.0447 26.4267 33.6527 27.192 33.13 27.976C32.626 28.76 31.9727 29.572 31.17 30.412L25.346 36.544V35.788H34.53C34.9033 35.788 35.1833 35.8813 35.37 36.068C35.5753 36.2547 35.678 36.5253 35.678 36.88C35.678 37.2347 35.5753 37.5147 35.37 37.72C35.1833 37.9067 34.9033 38 34.53 38H23.974Z" fill="black"/>
<path d="M26.834 162C26.834 162.828 27.5056 163.5 28.334 163.5C29.1624 163.5 29.834 162.828 29.834 162L26.834 162ZM26.834 53L26.834 162L29.834 162L29.834 53L26.834 53Z" fill="black"/>
</svg>
